<?xml version="1.0" encoding="UTF-8"?>
<svg xmlns="http://www.w3.org/2000/svg" xmlns:xlink="http://www.w3.org/1999/xlink" width="40px" height="40px" viewBox="0 0 40 40" version="1.1">
<g id="surface1">
<path style="fill:none;stroke-width:2;stroke-linecap:round;stroke-linejoin:round;stroke:#4dccff;stroke-opacity:1;stroke-miterlimit:4;" d="M 14.050781 6 C 15.025781 6.189844 15.923437 6.667969 16.628906 7.371094 C 17.332031 8.076562 17.810156 8.974219 18 9.949219 M 14.050781 1.999219 C 16.080469 2.226562 17.971875 3.133594 19.415625 4.577344 C 20.861719 6.01875 21.771094 7.910156 22.000781 9.939844 M 18.499219 21 C 9.939844 21 3 14.060156 3 5.500781 C 3 5.114062 3.014062 4.732031 3.042187 4.352344 C 3.072656 3.916406 3.089062 3.698437 3.203906 3.501562 C 3.297656 3.3375 3.466406 3.180469 3.635156 3.098437 C 3.841406 3 4.082812 3 4.560937 3 L 7.380469 3 C 7.783594 3 7.985156 3 8.158594 3.065625 C 8.310937 3.124219 8.446875 3.220312 8.554687 3.344531 C 8.676562 3.485156 8.744531 3.672656 8.882812 4.052344 L 10.05 7.260937 C 10.209375 7.701562 10.289062 7.921875 10.277344 8.132812 C 10.263281 8.315625 10.202344 8.49375 10.094531 8.646094 C 9.972656 8.817187 9.771094 8.936719 9.367969 9.178125 L 7.999219 10.000781 C 9.201562 12.649219 11.350781 14.800781 13.999219 16.000781 L 14.821875 14.632031 C 15.063281 14.228906 15.182812 14.027344 15.353906 13.905469 C 15.50625 13.797656 15.684375 13.736719 15.867187 13.722656 C 16.078125 13.710937 16.298437 13.790625 16.739062 13.95 L 19.947656 15.117187 C 20.327344 15.255469 20.514844 15.323437 20.655469 15.445312 C 20.779687 15.553125 20.875781 15.689062 20.934375 15.841406 C 21 16.014844 21 16.216406 21 16.619531 L 21 19.439062 C 21 19.917187 21 20.158594 20.901562 20.364844 C 20.819531 20.533594 20.6625 20.702344 20.498437 20.796094 C 20.301562 20.910937 20.083594 20.927344 19.647656 20.957812 C 19.267969 20.985937 18.885937 21 18.499219 21 Z M 18.499219 21 " transform="matrix(1.666667,0,0,1.666667,0,0)"/>
</g>
</svg>
