<?xml version="1.0" encoding="UTF-8"?>
<svg xmlns="http://www.w3.org/2000/svg" xmlns:xlink="http://www.w3.org/1999/xlink" width="40px" height="40px" viewBox="0 0 40 40" version="1.1">
<g id="surface1">
<path style=" stroke:none;fill-rule:nonzero;fill:#4dccff;fill-opacity:1;" d="M 38.332031 20 C 38.332031 30.125 30.125 38.332031 20 38.332031 C 9.875 38.332031 1.667969 30.125 1.667969 20 C 1.667969 9.875 9.875 1.667969 20 1.667969 C 30.125 1.667969 38.332031 9.875 38.332031 20 Z M 5.011719 20 C 5.011719 28.277344 11.722656 34.988281 20 34.988281 C 28.277344 34.988281 34.988281 28.277344 34.988281 20 C 34.988281 11.722656 28.277344 5.011719 20 5.011719 C 11.722656 5.011719 5.011719 11.722656 5.011719 20 Z M 5.011719 20 "/>
<path style=" stroke:none;fill-rule:nonzero;fill:#4dccff;fill-opacity:1;" d="M 20 8.332031 C 19.078125 8.332031 18.332031 9.078125 18.332031 10 L 18.332031 20.777344 C 18.332031 20.777344 18.332031 21.210938 18.542969 21.539062 C 18.6875 21.816406 18.90625 22.058594 19.195312 22.222656 L 26.894531 26.667969 C 27.691406 27.128906 28.710938 26.855469 29.171875 26.058594 C 29.632812 25.261719 29.359375 24.242188 28.5625 23.78125 L 21.667969 19.800781 L 21.667969 10 C 21.667969 9.078125 20.921875 8.332031 20 8.332031 Z M 20 8.332031 "/>
</g>
</svg>
